<?xml version="1.0" encoding="UTF-8" standalone="no"?>
<!-- Generator: Adobe Illustrator 14.0.0, SVG Export Plug-In . SVG Version: 6.00 Build 43363)  -->

<svg
   xmlns:dc="http://purl.org/dc/elements/1.1/"
   xmlns:cc="http://creativecommons.org/ns#"
   xmlns:rdf="http://www.w3.org/1999/02/22-rdf-syntax-ns#"
   xmlns:svg="http://www.w3.org/2000/svg"
   xmlns="http://www.w3.org/2000/svg"
   xmlns:sodipodi="http://sodipodi.sourceforge.net/DTD/sodipodi-0.dtd"
   xmlns:inkscape="http://www.inkscape.org/namespaces/inkscape"
   version="1.1"
   id="Layer_1"
   x="0px"
   y="0px"
   width="54px"
   height="36px"
   viewBox="0 0 54 36"
   enable-background="new 0 0 54 36"
   xml:space="preserve"
   inkscape:version="0.48.5 r10040"
   sodipodi:docname="Magnometer.svg"><metadata
     id="metadata49"><rdf:RDF><cc:Work
         rdf:about=""><dc:format>image/svg+xml</dc:format><dc:type
           rdf:resource="http://purl.org/dc/dcmitype/StillImage" /><dc:title></dc:title></cc:Work></rdf:RDF></metadata><defs
     id="defs47" /><sodipodi:namedview
     pagecolor="#ffffff"
     bordercolor="#666666"
     borderopacity="1"
     objecttolerance="10"
     gridtolerance="10"
     guidetolerance="10"
     inkscape:pageopacity="0"
     inkscape:pageshadow="2"
     inkscape:window-width="1920"
     inkscape:window-height="1025"
     id="namedview45"
     showgrid="false"
     inkscape:zoom="4.4259647"
     inkscape:cx="20.472781"
     inkscape:cy="27.551829"
     inkscape:window-x="2158"
     inkscape:window-y="417"
     inkscape:window-maximized="1"
     inkscape:current-layer="Layer_1" /><g
     inkscape:export-ydpi="187.30171"
     inkscape:export-xdpi="187.30171"
     inkscape:export-filename="/home/kgillespie/air_projects/air_everywhere/air_element_libraries/hmc5883/element_code/xRawMagneticField.png"
     transform="translate(77.49723,-64.731651)"
     id="g3149"><g
       id="g3151"><path
         style="fill:#009344"
         inkscape:connector-curvature="0"
         d="m 41.323,13.565 h 1.466 v 1.282 c 0,1.718 -1.397,3.116 -3.115,3.116 -1.717,0 -3.115,-1.397 -3.115,-3.115 v -1.282 h 1.467 l -2.559,-3.103 -2.56,3.103 h 1.553 v 1.302 c 0.011,2.865 2.351,5.195 5.214,5.195 2.875,0 5.215,-2.34 5.215,-5.215 v -1.282 h 1.553 l -2.561,-3.103 -2.558,3.102 z"
         id="path3153" /><path
         style="fill:#009344"
         inkscape:connector-curvature="0"
         d="M 47.799,3.439 H 6.175 c -1.8,0 -3.259,1.459 -3.259,3.259 V 29.49 c 0,1.799 1.459,3.26 3.259,3.26 h 41.624 c 1.8,0 3.26,-1.461 3.26,-3.26 V 6.698 c 0,-1.8 -1.46,-3.259 -3.26,-3.259 z m 1.026,25.059 c 0,1.152 -0.934,2.086 -2.085,2.086 H 7.062 c -1.151,0 -2.084,-0.934 -2.084,-2.086 v -8.189 c 0,-1.15 0.933,-2.084 2.084,-2.084 h 26.244 c 1.215,2.279 3.613,3.838 6.367,3.838 2.758,0 5.155,-1.558 6.369,-3.838 h 0.697 c 1.151,0 2.085,0.934 2.085,2.084 v 8.189 z"
         id="path3155" /></g></g><g
     inkscape:export-ydpi="187.30171"
     inkscape:export-xdpi="187.30171"
     inkscape:export-filename="/home/kgillespie/air_projects/air_everywhere/air_element_libraries/lis3mdl/element_code/xMagneticField.png"
     transform="translate(77.49723,-64.731651)"
     id="g3157"><path
       style="fill:#ffffff"
       inkscape:connector-curvature="0"
       d="m 41.323,13.565 h 1.466 v 1.282 c 0,1.718 -1.397,3.116 -3.115,3.116 -1.717,0 -3.115,-1.397 -3.115,-3.115 v -1.282 h 1.467 l -2.559,-3.103 -2.56,3.103 h 1.553 v 1.302 c 0.011,2.865 2.351,5.195 5.214,5.195 2.875,0 5.215,-2.34 5.215,-5.215 v -1.282 h 1.553 l -2.561,-3.103 -2.558,3.102 z"
       id="path3159" /><polygon
       style="fill:#ffffff"
       points="42.789,6.871 41.323,6.871 43.881,9.973 46.441,6.871 44.889,6.871 44.889,4.678 42.789,4.678 "
       id="polygon3161" /><polygon
       style="fill:#ffffff"
       points="34.46,6.871 32.907,6.871 35.467,9.973 38.025,6.871 36.559,6.871 36.559,4.677 34.46,4.657 "
       id="polygon3163" /></g><text
     inkscape:export-ydpi="187.30171"
     inkscape:export-xdpi="187.30171"
     inkscape:export-filename="/home/kgillespie/air_projects/air_everywhere/air_element_libraries/lis3mdl/element_code/xMagneticField.png"
     xml:space="preserve"
     style="font-size:5.58110619px;font-style:normal;font-variant:normal;font-weight:bold;font-stretch:normal;line-height:125%;letter-spacing:0px;word-spacing:0px;fill:#009344;fill-opacity:1;stroke:none;font-family:Futura-CondensedMedium;-inkscape-font-specification:Futura-CondensedMedium Bold"
     x="83.954056"
     y="-37.276276"
     id="text3165"
     sodipodi:linespacing="125%"><tspan
       sodipodi:role="line"
       id="tspan3167"
       x="83.954056"
       y="-37.276276">X RAW MAGNETIC FIELD</tspan></text>
<g
     id="g3169"
     transform="translate(77.49723,-32.874189)"
     inkscape:export-filename="/home/kgillespie/air_projects/air_everywhere/air_element_libraries/hmc5883/element_code/yRawMagneticField.png"
     inkscape:export-xdpi="187.30171"
     inkscape:export-ydpi="187.30171"><g
       id="g3171"><path
         id="path3173"
         d="m 41.323,13.565 h 1.466 v 1.282 c 0,1.718 -1.397,3.116 -3.115,3.116 -1.717,0 -3.115,-1.397 -3.115,-3.115 v -1.282 h 1.467 l -2.559,-3.103 -2.56,3.103 h 1.553 v 1.302 c 0.011,2.865 2.351,5.195 5.214,5.195 2.875,0 5.215,-2.34 5.215,-5.215 v -1.282 h 1.553 l -2.561,-3.103 -2.558,3.102 z"
         inkscape:connector-curvature="0"
         style="fill:#009344" /><path
         id="path3175"
         d="M 47.799,3.439 H 6.175 c -1.8,0 -3.259,1.459 -3.259,3.259 V 29.49 c 0,1.799 1.459,3.26 3.259,3.26 h 41.624 c 1.8,0 3.26,-1.461 3.26,-3.26 V 6.698 c 0,-1.8 -1.46,-3.259 -3.26,-3.259 z m 1.026,25.059 c 0,1.152 -0.934,2.086 -2.085,2.086 H 7.062 c -1.151,0 -2.084,-0.934 -2.084,-2.086 v -8.189 c 0,-1.15 0.933,-2.084 2.084,-2.084 h 26.244 c 1.215,2.279 3.613,3.838 6.367,3.838 2.758,0 5.155,-1.558 6.369,-3.838 h 0.697 c 1.151,0 2.085,0.934 2.085,2.084 v 8.189 z"
         inkscape:connector-curvature="0"
         style="fill:#009344" /></g></g><g
     id="g3177"
     transform="translate(77.49723,-32.874189)"
     inkscape:export-filename="/home/kgillespie/air_projects/air_everywhere/air_element_libraries/lis3mdl/element_code/xMagneticField.png"
     inkscape:export-xdpi="187.30171"
     inkscape:export-ydpi="187.30171"><path
       id="path3179"
       d="m 41.323,13.565 h 1.466 v 1.282 c 0,1.718 -1.397,3.116 -3.115,3.116 -1.717,0 -3.115,-1.397 -3.115,-3.115 v -1.282 h 1.467 l -2.559,-3.103 -2.56,3.103 h 1.553 v 1.302 c 0.011,2.865 2.351,5.195 5.214,5.195 2.875,0 5.215,-2.34 5.215,-5.215 v -1.282 h 1.553 l -2.561,-3.103 -2.558,3.102 z"
       inkscape:connector-curvature="0"
       style="fill:#ffffff" /><polygon
       id="polygon3181"
       points="41.323,6.871 43.881,9.973 46.441,6.871 44.889,6.871 44.889,4.678 42.789,4.678 42.789,6.871 "
       style="fill:#ffffff" /><polygon
       id="polygon3183"
       points="32.907,6.871 35.467,9.973 38.025,6.871 36.559,6.871 36.559,4.677 34.46,4.657 34.46,6.871 "
       style="fill:#ffffff" /></g><text
     sodipodi:linespacing="125%"
     id="text3185"
     y="-5.4188137"
     x="83.954056"
     style="font-size:5.58110619px;font-style:normal;font-variant:normal;font-weight:bold;font-stretch:normal;line-height:125%;letter-spacing:0px;word-spacing:0px;fill:#009344;fill-opacity:1;stroke:none;font-family:Futura-CondensedMedium;-inkscape-font-specification:Futura-CondensedMedium Bold"
     xml:space="preserve"
     inkscape:export-filename="/home/kgillespie/air_projects/air_everywhere/air_element_libraries/lis3mdl/element_code/xMagneticField.png"
     inkscape:export-xdpi="187.30171"
     inkscape:export-ydpi="187.30171"><tspan
       y="-5.4188137"
       x="83.954056"
       id="tspan3187"
       sodipodi:role="line">Y RAW MAGNETIC FIELD</tspan></text>
<g
     inkscape:export-ydpi="187.30171"
     inkscape:export-xdpi="187.30171"
     inkscape:export-filename="/home/kgillespie/air_projects/air_everywhere/air_element_libraries/hmc5883/element_code/zRawMagneticField.png"
     transform="translate(77.49723,0.11296994)"
     id="g3189"><g
       id="g3191"><path
         style="fill:#009344"
         inkscape:connector-curvature="0"
         d="m 41.323,13.565 h 1.466 v 1.282 c 0,1.718 -1.397,3.116 -3.115,3.116 -1.717,0 -3.115,-1.397 -3.115,-3.115 v -1.282 h 1.467 l -2.559,-3.103 -2.56,3.103 h 1.553 v 1.302 c 0.011,2.865 2.351,5.195 5.214,5.195 2.875,0 5.215,-2.34 5.215,-5.215 v -1.282 h 1.553 l -2.561,-3.103 -2.558,3.102 z"
         id="path3193" /><path
         style="fill:#009344"
         inkscape:connector-curvature="0"
         d="M 47.799,3.439 H 6.175 c -1.8,0 -3.259,1.459 -3.259,3.259 V 29.49 c 0,1.799 1.459,3.26 3.259,3.26 h 41.624 c 1.8,0 3.26,-1.461 3.26,-3.26 V 6.698 c 0,-1.8 -1.46,-3.259 -3.26,-3.259 z m 1.026,25.059 c 0,1.152 -0.934,2.086 -2.085,2.086 H 7.062 c -1.151,0 -2.084,-0.934 -2.084,-2.086 v -8.189 c 0,-1.15 0.933,-2.084 2.084,-2.084 h 26.244 c 1.215,2.279 3.613,3.838 6.367,3.838 2.758,0 5.155,-1.558 6.369,-3.838 h 0.697 c 1.151,0 2.085,0.934 2.085,2.084 v 8.189 z"
         id="path3195" /></g></g><g
     inkscape:export-ydpi="187.30171"
     inkscape:export-xdpi="187.30171"
     inkscape:export-filename="/home/kgillespie/air_projects/air_everywhere/air_element_libraries/lis3mdl/element_code/xMagneticField.png"
     transform="translate(77.49723,0.11296994)"
     id="g3197"><path
       style="fill:#ffffff"
       inkscape:connector-curvature="0"
       d="m 41.323,13.565 h 1.466 v 1.282 c 0,1.718 -1.397,3.116 -3.115,3.116 -1.717,0 -3.115,-1.397 -3.115,-3.115 v -1.282 h 1.467 l -2.559,-3.103 -2.56,3.103 h 1.553 v 1.302 c 0.011,2.865 2.351,5.195 5.214,5.195 2.875,0 5.215,-2.34 5.215,-5.215 v -1.282 h 1.553 l -2.561,-3.103 -2.558,3.102 z"
       id="path3199" /><polygon
       style="fill:#ffffff"
       points="43.881,9.973 46.441,6.871 44.889,6.871 44.889,4.678 42.789,4.678 42.789,6.871 41.323,6.871 "
       id="polygon3201" /><polygon
       style="fill:#ffffff"
       points="35.467,9.973 38.025,6.871 36.559,6.871 36.559,4.677 34.46,4.657 34.46,6.871 32.907,6.871 "
       id="polygon3203" /></g><text
     inkscape:export-ydpi="187.30171"
     inkscape:export-xdpi="187.30171"
     inkscape:export-filename="/home/kgillespie/air_projects/air_everywhere/air_element_libraries/lis3mdl/element_code/xMagneticField.png"
     xml:space="preserve"
     style="font-size:5.58110619px;font-style:normal;font-variant:normal;font-weight:bold;font-stretch:normal;line-height:125%;letter-spacing:0px;word-spacing:0px;fill:#009344;fill-opacity:1;stroke:none;font-family:Futura-CondensedMedium;-inkscape-font-specification:Futura-CondensedMedium Bold"
     x="83.954056"
     y="27.568346"
     id="text3205"
     sodipodi:linespacing="125%"><tspan
       sodipodi:role="line"
       id="tspan3207"
       x="83.954056"
       y="27.568346">Z RAW MAGNETIC FIELD</tspan></text>
<g
     id="g3209"
     transform="translate(77.49723,33.100129)"
     inkscape:export-filename="/home/kgillespie/air_projects/air_everywhere/air_element_libraries/hmc5883/element_code/rawMagneticField.png"
     inkscape:export-xdpi="187.30171"
     inkscape:export-ydpi="187.30171"><g
       id="g3211"><path
         id="path3213"
         d="m 41.323,13.565 h 1.466 v 1.282 c 0,1.718 -1.397,3.116 -3.115,3.116 -1.717,0 -3.115,-1.397 -3.115,-3.115 v -1.282 h 1.467 l -2.559,-3.103 -2.56,3.103 h 1.553 v 1.302 c 0.011,2.865 2.351,5.195 5.214,5.195 2.875,0 5.215,-2.34 5.215,-5.215 v -1.282 h 1.553 l -2.561,-3.103 -2.558,3.102 z"
         inkscape:connector-curvature="0"
         style="fill:#009344" /><path
         id="path3215"
         d="M 47.799,3.439 H 6.175 c -1.8,0 -3.259,1.459 -3.259,3.259 V 29.49 c 0,1.799 1.459,3.26 3.259,3.26 h 41.624 c 1.8,0 3.26,-1.461 3.26,-3.26 V 6.698 c 0,-1.8 -1.46,-3.259 -3.26,-3.259 z m 1.026,25.059 c 0,1.152 -0.934,2.086 -2.085,2.086 H 7.062 c -1.151,0 -2.084,-0.934 -2.084,-2.086 v -8.189 c 0,-1.15 0.933,-2.084 2.084,-2.084 h 26.244 c 1.215,2.279 3.613,3.838 6.367,3.838 2.758,0 5.155,-1.558 6.369,-3.838 h 0.697 c 1.151,0 2.085,0.934 2.085,2.084 v 8.189 z"
         inkscape:connector-curvature="0"
         style="fill:#009344" /></g></g><g
     id="g3217"
     transform="translate(77.49723,33.100129)"
     inkscape:export-filename="/home/kgillespie/air_projects/air_everywhere/air_element_libraries/lis3mdl/element_code/xMagneticField.png"
     inkscape:export-xdpi="187.30171"
     inkscape:export-ydpi="187.30171"><path
       id="path3219"
       d="m 41.323,13.565 h 1.466 v 1.282 c 0,1.718 -1.397,3.116 -3.115,3.116 -1.717,0 -3.115,-1.397 -3.115,-3.115 v -1.282 h 1.467 l -2.559,-3.103 -2.56,3.103 h 1.553 v 1.302 c 0.011,2.865 2.351,5.195 5.214,5.195 2.875,0 5.215,-2.34 5.215,-5.215 v -1.282 h 1.553 l -2.561,-3.103 -2.558,3.102 z"
       inkscape:connector-curvature="0"
       style="fill:#ffffff" /><polygon
       id="polygon3221"
       points="46.441,6.871 44.889,6.871 44.889,4.678 42.789,4.678 42.789,6.871 41.323,6.871 43.881,9.973 "
       style="fill:#ffffff" /><polygon
       id="polygon3223"
       points="38.025,6.871 36.559,6.871 36.559,4.677 34.46,4.657 34.46,6.871 32.907,6.871 35.467,9.973 "
       style="fill:#ffffff" /></g><text
     sodipodi:linespacing="125%"
     id="text3225"
     y="60.555504"
     x="85.761574"
     style="font-size:5.58110619px;font-style:normal;font-variant:normal;font-weight:bold;font-stretch:normal;line-height:125%;letter-spacing:0px;word-spacing:0px;fill:#009344;fill-opacity:1;stroke:none;font-family:Futura-CondensedMedium;-inkscape-font-specification:Futura-CondensedMedium Bold"
     xml:space="preserve"
     inkscape:export-filename="/home/kgillespie/air_projects/air_everywhere/air_element_libraries/lis3mdl/element_code/xMagneticField.png"
     inkscape:export-xdpi="187.30171"
     inkscape:export-ydpi="187.30171"><tspan
       y="60.555504"
       x="85.761574"
       id="tspan3227"
       sodipodi:role="line">RAW MAGNETIC FIELD</tspan></text>
</svg>