<?xml version="1.0" encoding="utf-8"?>
<!-- Generator: Adobe Illustrator 14.0.0, SVG Export Plug-In . SVG Version: 6.00 Build 43363)  -->
<!DOCTYPE svg PUBLIC "-//W3C//DTD SVG 1.1//EN" "http://www.w3.org/Graphics/SVG/1.1/DTD/svg11.dtd">
<svg version="1.1" id="Layer_1" xmlns="http://www.w3.org/2000/svg" xmlns:xlink="http://www.w3.org/1999/xlink" x="0px" y="0px"
	 width="54px" height="36px" viewBox="0 0 54 36" enable-background="new 0 0 54 36" xml:space="preserve">
<g>
	<path fill="#009344" d="M7.792,21.384h0.78l0.595,2.874c0.073,0.359,0.14,0.719,0.199,1.079c0.06,0.36,0.115,0.738,0.165,1.134
		c0.006-0.052,0.01-0.092,0.013-0.121c0.003-0.028,0.006-0.049,0.009-0.062L9.68,25.48l0.114-0.766l0.101-0.507l0.53-2.824h0.789
		l0.622,7.044h-0.871l-0.153-2.391c-0.006-0.121-0.011-0.227-0.016-0.314s-0.006-0.161-0.006-0.219l-0.04-0.944l-0.022-0.867
		c0-0.006,0-0.019-0.002-0.039c-0.001-0.02-0.004-0.046-0.007-0.079l-0.022,0.141c-0.023,0.168-0.044,0.313-0.063,0.438
		s-0.036,0.229-0.05,0.314l-0.114,0.644l-0.044,0.242l-0.569,3.074H9.242l-0.534-2.655c-0.073-0.35-0.138-0.704-0.195-1.064
		c-0.057-0.361-0.108-0.738-0.155-1.134l-0.263,4.854H7.236L7.792,21.384z"/>
	<path fill="#009344" d="M15.883,25.079c0,1.244-0.133,2.128-0.398,2.65c-0.266,0.523-0.711,0.785-1.335,0.785
		c-0.657,0-1.12-0.281-1.389-0.844c-0.266-0.551-0.398-1.528-0.398-2.934c0-1.253,0.131-2.14,0.394-2.66
		c0.266-0.522,0.715-0.784,1.349-0.784c0.566,0,0.987,0.202,1.261,0.606c0.181,0.271,0.312,0.655,0.394,1.154
		C15.842,23.517,15.883,24.191,15.883,25.079z M14.928,25.18c0-1.22-0.053-2.028-0.158-2.427c-0.105-0.401-0.32-0.603-0.644-0.603
		c-0.324,0-0.54,0.185-0.648,0.552c-0.105,0.371-0.158,1.116-0.158,2.235c0,1.031,0.056,1.746,0.167,2.145
		c0.114,0.377,0.327,0.565,0.64,0.565c0.307,0,0.517-0.176,0.63-0.529C14.872,26.769,14.928,26.122,14.928,25.18z"/>
	<path fill="#009344" d="M16.218,21.384h2.965v0.831h-1.021v6.213H17.27v-6.213h-1.051V21.384z"/>
	<path fill="#009344" d="M19.597,21.384h0.911v7.044h-0.911V21.384z"/>
	<path fill="#009344" d="M24.846,25.079c0,1.244-0.133,2.128-0.398,2.65c-0.266,0.523-0.711,0.785-1.335,0.785
		c-0.657,0-1.12-0.281-1.389-0.844c-0.266-0.551-0.398-1.528-0.398-2.934c0-1.253,0.131-2.14,0.394-2.66
		c0.266-0.522,0.715-0.784,1.349-0.784c0.566,0,0.987,0.202,1.261,0.606c0.181,0.271,0.312,0.655,0.394,1.154
		C24.805,23.517,24.846,24.191,24.846,25.079z M23.891,25.18c0-1.22-0.053-2.028-0.158-2.427c-0.105-0.401-0.32-0.603-0.644-0.603
		c-0.324,0-0.54,0.185-0.648,0.552c-0.105,0.371-0.158,1.116-0.158,2.235c0,1.031,0.056,1.746,0.167,2.145
		c0.114,0.377,0.327,0.565,0.64,0.565c0.307,0,0.517-0.176,0.63-0.529C23.834,26.769,23.891,26.122,23.891,25.18z"/>
	<path fill="#009344" d="M25.658,21.384h0.85l0.907,2.811c0.263,0.794,0.495,1.641,0.697,2.541
		c-0.074-0.544-0.127-1.037-0.163-1.479c-0.035-0.44-0.053-0.855-0.053-1.245v-2.628h0.911v7.044h-0.852l-1.019-3.171
		c-0.093-0.295-0.181-0.598-0.264-0.907c-0.083-0.311-0.16-0.636-0.229-0.977c-0.006-0.042-0.016-0.094-0.029-0.155
		c-0.013-0.061-0.028-0.131-0.046-0.21c0.009,0.079,0.016,0.147,0.022,0.203c0.006,0.057,0.01,0.104,0.013,0.144l0.048,0.717
		l0.052,0.871c0.003,0.049,0.005,0.108,0.007,0.178c0.002,0.07,0.002,0.149,0.002,0.237l0.048,3.07h-0.902V21.384z"/>
</g>
<path fill="#009344" d="M48.335,3.931H6.744c-1.798,0-3.257,1.457-3.257,3.256v22.776c0,1.797,1.458,3.256,3.257,3.256h41.591
	c1.798,0,3.257-1.459,3.257-3.256V7.187C51.592,5.388,50.133,3.931,48.335,3.931z M49.36,28.971c0,1.15-0.934,2.084-2.083,2.084
	H7.63c-1.15,0-2.083-0.934-2.083-2.084v-8.184c0-1.15,0.932-2.082,2.083-2.082h26.43l4.216,4.213l4.214-4.213h4.787
	c1.149,0,2.083,0.931,2.083,2.082V28.971z"/>
<polygon fill="#FFFFFF" points="38.275,6.268 36.297,8.247 40.116,12.064 28.761,12.064 28.761,14.862 40.116,14.862 36.297,18.681 
	38.275,20.658 45.473,13.463 "/>
</svg>
